<svg xmlns="http://www.w3.org/2000/svg" width="48" height="48" fill="none" viewBox="0 0 48 48">
    <path fill="#ECEFF1" d="M24 0C10.745 0 0 10.745 0 24s10.745 24 24 24 24-10.745 24-24S37.255 0 24 0z"/>
    <path fill="#000" stroke="#000" stroke-width=".5" d="M22.19 29.285l-.186.168c.168.184.394.297.641.297s.473-.113.64-.297h0l.004-.003 3.96-4.515.364-.415h-.146c.022-.088.033-.179.033-.27 0-.127-.022-.253-.065-.371-.042-.117-.105-.225-.188-.315L23.29 19.05h0l-.004-.004c-.167-.184-.393-.297-.64-.297s-.473.113-.64.296c-.084.091-.148.2-.19.318-.044.118-.065.244-.065.371 0 .128.021.254.064.372.043.117.106.225.189.316l3.357 3.827-3.357 3.828c-.082.09-.146.198-.188.315-.043.118-.065.245-.065.372s.022.253.065.372c.043.118.107.227.19.317l.184-.17zm0 0c.126.139.288.215.455.215.168 0 .33-.076.456-.215l-.912-1.04c-.059.064-.107.143-.14.233-.032.09-.049.188-.049.287 0 .099.017.196.05.286.032.09.08.17.14.234z"/>
</svg>
